<svg width="592" height="614" viewBox="0 0 592 614" fill="none" xmlns="http://www.w3.org/2000/svg">
<path d="M587.679 229.6L587.751 229.51L587.386 229.217C585.549 226.805 583.143 224.861 580.373 223.562L528.835 181.981V74.9386C528.835 64.5569 520.392 56.1138 510.01 56.1138H372.84L308.862 4.49228C301.442 -1.49743 289.81 -1.49743 282.39 4.49228L218.406 56.1138H81.235C70.8532 56.1138 62.4102 64.5569 62.4102 74.9386V181.969L10.8724 223.556C8.10196 224.855 5.70248 226.805 3.86548 229.211L3.50048 229.51L3.57826 229.606C1.34035 232.705 0 236.493 0 240.604V595.175C0 605.557 8.44303 614 18.8248 614H572.439C582.82 614 591.263 605.557 591.263 595.175V240.592C591.263 236.487 589.929 232.693 587.685 229.594L587.679 229.6ZM219.692 418.584L18.8188 584.59V256.515L219.692 418.584ZM293.424 382.071C293.986 381.604 295.626 381.586 296.2 382.047L340.192 416.998C344.219 420.199 350.712 425.465 354.667 428.738L555.714 595.169H35.5732L293.43 382.071H293.424ZM371.745 418.434L572.433 256.515V584.566L371.745 418.428V418.434ZM566.856 236.828L528.841 267.501V206.156L566.856 236.828ZM294.214 19.1404C294.794 18.6737 296.463 18.6737 297.044 19.1404L342.867 56.1138H248.384L294.208 19.1404H294.214ZM510.016 74.9386V282.687L356.875 406.239C355.062 404.773 353.327 403.385 351.903 402.254L307.91 367.303C300.431 361.361 288.798 361.475 281.438 367.56L234.508 406.347L81.241 282.693V74.9386H510.022H510.016ZM62.4102 267.501L24.3956 236.828L62.4102 206.156V267.501Z" fill="#004E8A"/>
<path d="M458.384 157.753H132.869C127.915 157.753 123.894 153.738 123.894 148.777C123.894 143.817 127.915 139.802 132.869 139.802H458.384C463.338 139.802 467.359 143.817 467.359 148.777C467.359 153.738 463.338 157.753 458.384 157.753Z" fill="#004E8A"/>
<path d="M458.384 214H132.869C127.915 214 123.894 209.985 123.894 205.024C123.894 200.064 127.915 196.049 132.869 196.049H458.384C463.338 196.049 467.359 200.064 467.359 205.024C467.359 209.985 463.338 214 458.384 214Z" fill="#004E8A"/>
<path d="M458.384 270.247H132.869C127.915 270.247 123.894 266.232 123.894 261.271C123.894 256.311 127.915 252.296 132.869 252.296H458.384C463.338 252.296 467.359 256.311 467.359 261.271C467.359 266.232 463.338 270.247 458.384 270.247Z" fill="#004E8A"/>
</svg>
