<svg width="813" height="609" viewBox="0 0 813 609" fill="none" xmlns="http://www.w3.org/2000/svg">
<g clip-path="url(#clip0_13_8)">
<path d="M408.395 150.259C408.219 220.813 351.022 277.89 280.43 278.155C209.838 277.978 152.729 220.813 152.465 150.259V127.886C152.641 57.3326 209.838 0.255457 280.43 -0.00878906C351.022 0.167375 408.13 57.3326 408.395 127.886V150.259Z" fill="#004E8A"/>
<path d="M378.342 414.154C378.342 387.377 382.749 360.864 391.562 335.584C354.988 328.626 317.709 325.279 280.43 325.719C237.687 325.455 194.944 329.683 153.082 338.491C91.5671 349.854 -0.0881348 389.05 -0.0881348 473.257V539.495H413.683C390.504 501.707 378.254 458.371 378.342 414.154Z" fill="#004E8A"/>
<path d="M618.144 219.315C510.449 219.315 423.201 306.517 423.201 414.153C423.201 521.789 510.449 608.991 618.144 608.991C725.839 608.991 813.088 521.789 813.088 414.153C813 306.517 725.751 219.315 618.144 219.315ZM583.421 513.95L490.268 420.759L527.547 383.501L583.509 439.433L708.742 314.268L746.021 351.527L583.421 513.95Z" fill="#004E8A"/>
</g>
<defs>
<clipPath id="clip0_13_8">
<rect width="813" height="609" fill="white"/>
</clipPath>
</defs>
</svg>
